<?xml version="1.0" standalone="no"?>
<!DOCTYPE svg PUBLIC "-//W3C//DTD SVG 20010904//EN"
 "http://www.w3.org/TR/2001/REC-SVG-20010904/DTD/svg10.dtd">
<svg version="1.0" xmlns="http://www.w3.org/2000/svg"
 width="500.000000pt" height="500.000000pt" viewBox="0 0 500.000000 500.000000"
 preserveAspectRatio="xMidYMid meet">
<metadata>
Created by potrace 1.14, written by Peter Selinger 2001-2017
</metadata>
<g transform="translate(0.000000,500.000000) scale(0.100000,-0.100000)"
fill="#000000" stroke="none">
<path d="M0 2500 l0 -2500 2500 0 2500 0 0 2500 0 2500 -2500 0 -2500 0 0
-2500z m2939 1976 c15 -8 37 -28 47 -43 18 -26 19 -52 20 -386 0 -207 4 -361
10 -367 5 -5 122 -10 261 -12 237 -3 253 -4 280 -24 49 -36 51 -52 57 -334 2
-146 5 -266 5 -267 1 -2 163 -3 361 -3 303 0 366 -2 390 -15 54 -28 76 -106
46 -163 -8 -15 -538 -550 -1178 -1189 -807 -806 -1172 -1164 -1191 -1169 -38
-9 -95 14 -121 49 -20 28 -21 40 -24 398 l-3 369 -252 0 c-277 0 -298 4 -341
63 -20 27 -21 39 -18 273 2 134 1 253 -3 264 -6 20 -15 20 -353 20 -326 0
-349 1 -379 20 -69 42 -87 120 -43 183 35 48 2289 2315 2320 2332 33 18 74 19
109 1z"/>
<path d="M2617 3917 c-59 -61 -465 -470 -902 -907 -437 -438 -795 -801 -795
-807 0 -9 73 -13 263 -15 291 -3 297 -5 337 -71 18 -30 20 -52 20 -290 l0
-259 263 4 c376 4 357 23 357 -357 0 -140 3 -255 7 -255 3 0 413 408 911 907
742 745 901 908 886 914 -11 4 -125 8 -254 8 -263 1 -284 6 -327 70 -22 33
-23 40 -23 292 l0 258 -259 3 c-364 4 -349 -11 -352 353 -2 232 -4 265 -18
265 -3 0 -54 -51 -114 -113z m324 -772 c37 -20 69 -70 69 -111 0 -17 -11 -48
-25 -69 l-26 -37 25 -43 c59 -106 77 -239 43 -317 -43 -100 -173 -95 -223 9
-10 23 -18 64 -19 103 -3 110 -53 170 -142 170 -82 0 -133 -82 -97 -154 9 -17
42 -52 74 -78 232 -187 108 -577 -193 -605 -38 -3 -92 -1 -127 6 l-61 12 -41
-35 c-58 -50 -111 -50 -162 -2 -32 29 -36 39 -36 82 0 36 7 59 25 86 l25 36
-22 49 c-39 87 -48 154 -29 221 25 92 57 122 127 122 29 0 44 -8 75 -39 38
-38 39 -40 39 -112 0 -122 47 -184 140 -184 40 0 54 5 79 29 61 58 47 122 -41
190 -68 53 -102 103 -124 182 -55 203 94 414 305 431 36 3 89 1 118 -4 48 -9
52 -9 62 14 14 30 68 63 104 63 15 0 41 -7 58 -15z"/>
</g>
</svg>
